{"title":"Yamakasi - Os Filhos do Vento","uid":11497839,"size":732991086,"categoryP":"video","categoryS":"movies","magnet":"?xt=urn:btih:e39b14dbbb867993b42d25adacd2e22588b00829&amp;dn=Yamakasi+-+Os+Filhos+do+Vento&amp;tr=udp%3A%2F%2Ftracker.openbittorrent.com%3A80&amp;tr=udp%3A%2F%2Fopen.demonii.com%3A1337&amp;tr=udp%3A%2F%2Ftracker.coppersurfer.tk%3A6969&amp;tr=udp%3A%2F%2Fexodus.desync.com%3A6969","seeders":1,"leechers":0,"uploader":"frankcure","files":2,"time":1416269216,"description":"Pt-br\n\nGeneral\n\nFormat                                   : AVI\nFormat/Info                              : Audio Video Interleave\nFile size                                : 699 MiB\nDuration                                 : 1h 34mn\nOverall bit rate                         : 1 035 Kbps\nWriting application                      : VirtualDubMod 1.5.4.1 (build 2117/release)\nWriting library                          : VirtualDubMod build 2117/release\n\nVideo\nID                                       : 0\nFormat                                   : MPEG-4 Visual\nFormat profile                           : Advanced Simple@L5\nFormat settings, BVOP                    : 1\nFormat settings, QPel                    : No\nFormat settings, GMC                     : No warppoints\nFormat settings, Matrix                  : Default (H.263)\nMuxing mode                              : Packed bitstream\nCodec ID                                 : XVID\nCodec ID/Hint                            : XviD\nDuration                                 : 1h 34mn\nBit rate                                 : 898 Kbps\nWidth                                    : 688 pixels\nHeight                                   : 336 pixels\nDisplay aspect ratio                     : 2.048\nFrame rate                               : 23.976 fps\nColor space                              : YUV\nChroma subsampling                       : 4:2:0\nBit depth                                : 8 bits\nScan type                                : Progressive\nCompression mode                         : Lossy\nBits/(Pixel*Frame)                       : 0.162\nStream size                              : 606 MiB (87%)\nWriting library                          : XviD 1.0.1 (UTC 2004-06-05)\n\nAudio\nID                                       : 1\nFormat                                   : MPEG Audio\nFormat version                           : Version 1\nFormat profile                           : Layer 3\nMode                                     : Joint stereo\nMode extension                           : MS Stereo\nCodec ID                                 : 55\nCodec ID/Hint                            : MP3\nDuration                                 : 1h 34mn\nBit rate mode                            : Constant\nBit rate                                 : 128 Kbps\nChannel(s)                               : 2 channels\nSampling rate                            : 48.0 KHz\nCompression mode                         : Lossy\nStream size                              : 86.4 MiB (12%)\nAlignment                                : Aligned on interleaves\nInterleave, duration                     : 42 ms (1.00 video frame)\nInterleave, preload duration             : 504 ms\nWriting library                          : LAME3.95 \nEncoding settings                        : -m j -V 4 -q 2 -lowpass 17.5 -b 128","torrent":{"xt":"urn:btih:e39b14dbbb867993b42d25adacd2e22588b00829","amp;dn":"Yamakasi+-+Os+Filhos+do+Vento","amp;tr":["udp%3A%2F%2Ftracker.openbittorrent.com%3A80","udp%3A%2F%2Fopen.demonii.com%3A1337","udp%3A%2F%2Ftracker.coppersurfer.tk%3A6969","udp%3A%2F%2Fexodus.desync.com%3A6969"],"infoHash":"e39b14dbbb867993b42d25adacd2e22588b00829","infoHashBuffer":{"type":"Buffer","data":[227,155,20,219,187,134,121,147,180,45,37,173,172,210,226,37,136,176,8,41]},"announce":[],"urlList":[]}}